<?xml version="1.0" standalone="no"?>
<!DOCTYPE svg PUBLIC "-//W3C//DTD SVG 20010904//EN"
 "http://www.w3.org/TR/2001/REC-SVG-20010904/DTD/svg10.dtd">
<svg version="1.0" xmlns="http://www.w3.org/2000/svg"
 width="500.000000pt" height="500.000000pt" viewBox="0 0 500.000000 500.000000"
 preserveAspectRatio="xMidYMid meet">

<g transform="translate(0.000000,500.000000) scale(0.100000,-0.100000)"
fill="#000000" stroke="none">
<path d="M1930 3229 c-13 -9 -13 -10 1 -6 9 3 22 0 28 -6 6 -6 11 -7 11 -2 0
5 14 -4 32 -21 17 -16 27 -23 23 -15 -5 9 -4 12 3 7 6 -4 23 1 37 10 14 9 28
14 32 10 3 -3 1 -6 -6 -6 -7 0 -9 -5 -6 -10 4 -6 16 -8 28 -5 20 5 20 5 4 -5
-14 -9 -22 -9 -33 1 -8 6 -17 9 -20 6 -3 -3 5 -13 19 -22 14 -9 24 -23 22 -33
-2 -9 -4 -23 -4 -29 -1 -7 -10 -13 -21 -13 -27 0 -70 -21 -64 -31 3 -5 -1 -6
-9 -3 -8 3 -22 -2 -30 -11 -9 -9 -20 -16 -24 -17 -21 -2 -102 -56 -95 -63 4
-4 2 -5 -5 -1 -10 5 -62 -3 -123 -21 -13 -4 -13 -5 0 -12 8 -5 32 -11 53 -15
20 -4 37 -10 37 -15 0 -4 -25 -14 -56 -21 -31 -8 -63 -20 -71 -28 -8 -8 -17
-12 -20 -8 -3 3 -14 -4 -24 -16 -14 -16 -16 -24 -8 -35 9 -10 8 -13 -4 -13
-11 0 -14 7 -11 25 l5 26 -28 -17 c-44 -28 -63 -46 -57 -56 3 -4 2 -8 -3 -7
-4 1 -15 1 -23 0 -13 -1 -13 -2 0 -11 8 -5 24 -7 35 -4 16 4 17 3 5 -5 -8 -6
-25 -8 -37 -4 -23 5 -28 -3 -24 -36 2 -7 -2 -10 -7 -7 -6 3 -13 -1 -16 -10 -6
-15 -4 -15 16 -1 13 8 22 23 20 33 -2 14 0 15 6 6 7 -10 18 -8 53 7 68 29 96
33 103 16 9 -23 -4 -46 -23 -40 -13 4 -22 -6 -35 -35 -24 -54 -105 -142 -154
-165 -38 -19 -39 -35 -2 -35 13 0 13 1 0 10 -13 8 -13 10 2 10 9 0 18 5 20 12
3 9 6 9 12 0 4 -7 2 -12 -3 -12 -6 0 -11 -5 -11 -11 0 -12 60 -5 103 13 39 15
46 2 36 -67 -34 -225 75 -498 262 -654 290 -243 719 -232 994 25 31 29 37 36
15 20 -76 -56 -149 -96 -225 -122 -73 -26 -93 -28 -220 -28 -131 -1 -146 1
-225 30 -388 138 -565 567 -383 929 13 28 35 64 49 81 23 31 23 32 2 26 -15
-3 -19 -2 -14 7 6 8 1 10 -17 5 -14 -3 -34 -1 -44 5 -15 10 -14 10 8 5 21 -4
31 0 47 21 12 14 18 34 15 43 -4 13 -3 14 5 3 7 -9 12 -10 16 -2 4 6 4 11 0
11 -4 0 5 9 20 21 14 11 26 25 26 31 0 7 -10 2 -23 -10 -17 -16 -26 -18 -37
-11 -13 9 -13 10 2 6 9 -3 24 3 34 14 13 14 20 16 31 8 10 -9 13 -7 13 7 0 15
2 16 9 5 6 -9 11 -10 15 -2 4 6 4 11 0 11 -4 0 21 14 54 31 34 18 59 37 55 42
-3 6 -2 7 4 4 15 -9 94 24 86 36 -4 6 0 8 11 4 9 -4 45 0 79 7 34 8 88 16 119
18 48 4 55 3 40 -8 -9 -8 -25 -14 -34 -14 -9 0 -24 -3 -33 -6 -13 -6 -14 -9
-3 -16 10 -7 8 -8 -5 -4 -26 8 -113 -29 -109 -47 1 -8 -4 -17 -12 -20 -11 -4
-13 -1 -9 10 5 13 3 14 -16 4 -51 -28 -111 -73 -106 -81 3 -5 0 -10 -7 -13 -7
-2 -5 -3 4 -2 9 2 25 -3 35 -11 17 -13 16 -15 -15 -40 -18 -14 -29 -30 -26
-36 4 -7 2 -8 -4 -4 -16 10 -69 -89 -83 -153 -24 -116 48 -275 168 -375 37
-31 71 -56 75 -56 4 0 4 21 0 48 -4 26 -7 92 -7 147 0 128 21 172 102 211 46
23 53 30 53 55 0 42 25 95 50 109 30 16 33 9 10 -34 -21 -42 -18 -83 8 -126
36 -59 85 -86 184 -101 40 -6 80 -15 88 -20 8 -5 37 -21 64 -37 72 -40 116
-81 116 -107 0 -12 9 -33 19 -46 18 -22 26 -24 92 -21 40 1 78 7 85 13 7 6 20
34 29 62 16 51 16 55 -5 109 -11 31 -60 112 -107 180 -105 150 -203 305 -197
311 3 2 21 -2 42 -9 20 -7 50 -13 66 -14 16 0 38 -8 49 -17 18 -17 18 -17 6
10 -8 17 -31 36 -64 52 -29 13 -71 40 -95 60 -23 19 -53 38 -66 41 -32 8 -30
19 9 68 41 49 57 79 57 102 0 15 -3 15 -23 -4 -12 -11 -57 -37 -99 -56 l-76
-35 -94 10 c-185 19 -320 28 -336 22 -15 -4 -15 -3 -2 6 13 9 13 11 -1 11 -10
0 -49 14 -89 31 -40 17 -78 28 -86 25 -8 -3 -14 -1 -14 4 0 13 -81 12 -100 -1z
m130 -19 c-8 -5 -22 -10 -30 -10 -13 0 -13 1 0 10 8 5 22 10 30 10 13 0 13 -1
0 -10z m74 -105 c-4 -8 -8 -15 -10 -15 -2 0 -4 7 -4 15 0 8 4 15 10 15 5 0 7
-7 4 -15z m-29 -35 c-3 -5 -12 -10 -18 -10 -7 0 -6 4 3 10 19 12 23 12 15 0z
m322 -6 c-3 -3 -12 -4 -19 -1 -8 3 -5 6 6 6 11 1 17 -2 13 -5z m-97 -20 c0 -2
-12 -4 -27 -4 -21 0 -24 3 -14 9 13 8 41 5 41 -5z m-110 1 c0 -8 -52 -26 -58
-20 -3 2 6 9 19 14 28 11 39 13 39 6z m37 -1 c-3 -3 -12 -4 -19 -1 -8 3 -5 6
6 6 11 1 17 -2 13 -5z m-261 -19 c-11 -8 -24 -15 -30 -15 -5 0 -1 7 10 15 10
8 24 14 29 14 6 0 1 -6 -9 -14z m175 -23 c-7 -2 -18 1 -23 6 -8 8 -4 9 13 5
13 -4 18 -8 10 -11z m-156 -2 c3 -5 -1 -10 -10 -10 -9 0 -13 5 -10 10 3 6 8
10 10 10 2 0 7 -4 10 -10z m25 -35 c-7 -8 -17 -15 -23 -15 -6 0 -2 7 9 15 25
19 30 19 14 0z m250 -20 c7 -9 8 -15 2 -15 -5 0 -12 7 -16 15 -3 8 -4 15 -2
15 2 0 9 -7 16 -15z m-473 -11 c-3 -3 -12 -4 -19 -1 -8 3 -5 6 6 6 11 1 17 -2
13 -5z m53 -4 c0 -5 -7 -10 -16 -10 -8 0 -12 5 -9 10 3 6 10 10 16 10 5 0 9
-4 9 -10z m145 0 c3 -6 -1 -7 -9 -4 -18 7 -21 14 -7 14 6 0 13 -4 16 -10z
m-258 -76 c-3 -3 -12 -4 -19 -1 -8 3 -5 6 6 6 11 1 17 -2 13 -5z m43 -4 c0 -5
-2 -10 -4 -10 -2 0 -12 -3 -22 -7 -16 -6 -17 -5 -4 10 17 19 30 22 30 7z
m-120 -40 c0 -5 -4 -10 -10 -10 -5 0 -10 5 -10 10 0 6 5 10 10 10 6 0 10 -4
10 -10z m143 -25 c-3 -9 -8 -14 -10 -11 -3 3 -2 9 2 15 9 16 15 13 8 -4z
m-228 -15 c-3 -5 -14 -10 -23 -10 -15 0 -15 2 -2 10 20 13 33 13 25 0z m80 0
c3 -5 1 -10 -4 -10 -6 0 -11 5 -11 10 0 6 2 10 4 10 3 0 8 -4 11 -10z m175 0
c0 -5 -5 -10 -11 -10 -5 0 -7 5 -4 10 3 6 8 10 11 10 2 0 4 -4 4 -10z m-210
-10 c0 -5 -10 -10 -22 -9 -22 0 -22 1 -3 9 11 5 21 9 23 9 1 1 2 -3 2 -9z m65
-40 c3 -5 1 -10 -4 -10 -6 0 -11 5 -11 10 0 6 2 10 4 10 3 0 8 -4 11 -10z
m113 -15 c-3 -3 -9 2 -12 12 -6 14 -5 15 5 6 7 -7 10 -15 7 -18z m32 5 c0 -5
-5 -10 -11 -10 -5 0 -7 5 -4 10 3 6 8 10 11 10 2 0 4 -4 4 -10z m-150 -20 c0
-5 -5 -10 -11 -10 -5 0 -7 5 -4 10 3 6 8 10 11 10 2 0 4 -4 4 -10z m-23 -36
c-3 -3 -12 -4 -19 -1 -8 3 -5 6 6 6 11 1 17 -2 13 -5z m-66 -47 c-6 -8 -7 -18
-3 -22 4 -5 1 -5 -6 -1 -10 6 -10 11 -1 22 6 8 14 14 16 14 3 0 0 -6 -6 -13z
m-1 -48 c12 -8 10 -9 -7 -4 -15 4 -23 2 -23 -6 0 -7 -3 -10 -6 -6 -7 7 4 27
14 27 4 0 14 -5 22 -11z m-76 -54 c-4 -8 -11 -15 -16 -15 -6 0 -5 6 2 15 7 8
14 15 16 15 2 0 1 -7 -2 -15z"/>
<path d="M2665 3220 c-16 -17 -16 -20 -3 -15 9 4 19 13 22 21 7 19 2 18 -19
-6z"/>
<path d="M2612 3185 l-23 -13 26 -6 c18 -5 31 -1 46 13 l20 19 -23 -1 c-13 0
-33 -6 -46 -12z"/>
<path d="M2047 3173 c-4 -6 1 -17 11 -25 28 -25 39 -28 39 -13 0 8 -2 13 -5
10 -2 -2 -12 5 -22 17 -10 13 -19 17 -23 11z"/>
<path d="M1650 2714 c0 -8 5 -12 10 -9 6 3 10 10 10 16 0 5 -4 9 -10 9 -5 0
-10 -7 -10 -16z"/>
<path d="M1925 2466 c-4 -21 -5 -75 -2 -120 5 -67 13 -95 47 -162 58 -119 126
-178 319 -279 84 -44 175 -97 203 -118 l51 -39 -6 46 c-16 113 -69 166 -332
329 -154 95 -227 186 -259 324 l-13 58 -8 -39z"/>
</g>
</svg>
